<svg width="18" height="18" viewBox="0 0 18 18" fill="none" xmlns="http://www.w3.org/2000/svg">
<path d="M9.375 15.75C13.31 15.75 16.5 12.56 16.5 8.625C16.5 4.68997 13.31 1.5 9.375 1.5C5.43997 1.5 2.25 4.68997 2.25 8.625C2.25 12.56 5.43997 15.75 9.375 15.75Z" stroke="#5EBCE9" stroke-linecap="round" stroke-linejoin="round"/>
<path d="M8.81378 10.1795V10.1401C8.81803 9.7216 8.86054 9.38858 8.94133 9.14101C9.02211 8.89344 9.1369 8.69298 9.28571 8.53962C9.43452 8.38625 9.6131 8.24494 9.82143 8.11568C9.94685 8.03681 10.0595 7.94369 10.1594 7.83634C10.2594 7.7268 10.338 7.60082 10.3954 7.45841C10.4549 7.31601 10.4847 7.15826 10.4847 6.98518C10.4847 6.77047 10.4358 6.58425 10.338 6.42651C10.2402 6.26876 10.1095 6.14717 9.94579 6.06172C9.7821 5.97628 9.60034 5.93356 9.40051 5.93356C9.22619 5.93356 9.05825 5.9708 8.89668 6.04529C8.73512 6.11978 8.60013 6.23699 8.49171 6.39693C8.38329 6.55686 8.32058 6.76609 8.30357 7.02462H7.5C7.51701 6.65217 7.61054 6.33339 7.78061 6.0683C7.95281 5.8032 8.17921 5.60054 8.45982 5.46032C8.74256 5.32011 9.05612 5.25 9.40051 5.25C9.77466 5.25 10.0999 5.32668 10.3763 5.48004C10.6548 5.63341 10.8695 5.84373 11.0204 6.11102C11.1735 6.37831 11.25 6.68284 11.25 7.02462C11.25 7.26562 11.2139 7.48361 11.1416 7.6786C11.0714 7.87359 10.9694 8.04776 10.8355 8.20112C10.7037 8.35449 10.5442 8.49032 10.3571 8.60863C10.1701 8.72913 10.0202 8.8562 9.90753 8.98984C9.79486 9.1213 9.71301 9.27794 9.66199 9.45979C9.61097 9.64163 9.58333 9.86839 9.57908 10.1401V10.1795H8.81378ZM9.22194 12.125C9.06463 12.125 8.92963 12.0669 8.81696 11.9508C8.70429 11.8347 8.64796 11.6956 8.64796 11.5335C8.64796 11.3713 8.70429 11.2322 8.81696 11.1161C8.92963 11 9.06463 10.9419 9.22194 10.9419C9.37925 10.9419 9.51424 11 9.62691 11.1161C9.73958 11.2322 9.79592 11.3713 9.79592 11.5335C9.79592 11.6408 9.76935 11.7394 9.7162 11.8292C9.66518 11.9191 9.59609 11.9914 9.50893 12.0461C9.42389 12.0987 9.32823 12.125 9.22194 12.125Z" fill="#5EBCE9"/>
</svg>
